<svg width="14" height="17" viewBox="0 0 14 17" fill="none" xmlns="http://www.w3.org/2000/svg">
<path d="M0.100167 3.26763H0.100174L0.10016 3.26645C0.0938729 2.73118 0.272616 2.21015 0.606171 1.79147C0.939726 1.37278 1.40763 1.08212 1.93077 0.968621L1.93111 0.968546C2.09899 0.93151 2.27036 0.912655 2.44228 0.912307H9.89869V0.912329L9.90081 0.912284C10.2037 0.905858 10.5049 0.959422 10.787 1.06989C11.0691 1.18036 11.3265 1.34555 11.5445 1.55595C11.7625 1.76635 11.9367 2.0178 12.0571 2.29581C12.1775 2.57383 12.2417 2.87291 12.246 3.17584L12.246 3.17673C12.2655 4.02033 12.259 4.86264 12.2525 5.70675C12.2493 6.12967 12.246 6.55304 12.246 6.97724H12.2458L12.2462 6.98369C12.2504 7.0484 12.2417 7.1133 12.2205 7.1746C12.1993 7.23589 12.1662 7.29237 12.123 7.34072C12.0798 7.38907 12.0274 7.42834 11.9688 7.45623C11.9103 7.48412 11.8468 7.50008 11.782 7.50317L11.782 7.50308L11.7778 7.50346C11.7101 7.50955 11.6418 7.50166 11.5773 7.48029C11.5127 7.45891 11.4533 7.4245 11.4026 7.3792C11.3518 7.33389 11.311 7.27866 11.2825 7.21691C11.254 7.15516 11.2385 7.08822 11.237 7.02024L11.237 7.02024L11.2369 7.01715C11.229 6.8717 11.229 6.72594 11.2369 6.58049L11.237 6.5805V6.57512C11.237 6.21879 11.2349 5.86309 11.2328 5.50772C11.2287 4.79901 11.2246 4.09165 11.2369 3.38332C11.2485 3.18737 11.2183 2.99119 11.1483 2.80778C11.078 2.62368 10.9694 2.45667 10.8295 2.31789C10.6896 2.1791 10.5218 2.07173 10.3371 2.00293C10.1535 1.9345 9.9574 1.90579 9.76185 1.91869C8.16565 1.92931 6.56272 1.92576 4.9585 1.92222C4.15533 1.92044 3.35184 1.91866 2.5487 1.91866C2.1031 1.91866 1.73695 2.04992 1.48211 2.30403C1.22723 2.55818 1.09587 2.92306 1.09587 3.36616V13.8665C1.09587 14.3037 1.22897 14.6643 1.4815 14.9157C1.73395 15.1671 2.09446 15.298 2.52739 15.298H2.53112H2.53485H2.53858H2.54231H2.54604H2.54977H2.5535H2.55723H2.56096H2.56469H2.56842H2.57215H2.57588H2.57961H2.58334H2.58707H2.5908H2.59453H2.59826H2.60199H2.60572H2.60945H2.61318H2.61691H2.62064H2.62437H2.6281H2.63184H2.63557H2.6393H2.64303H2.64676H2.65049H2.65422H2.65795H2.66168H2.66542H2.66915H2.67288H2.67661H2.68034H2.68407H2.6878H2.69154H2.69527H2.699H2.70273H2.70646H2.7102H2.71393H2.71766H2.72139H2.72512H2.72886H2.73259H2.73632H2.74005H2.74379H2.74752H2.75125H2.75498H2.75872H2.76245H2.76618H2.76991H2.77365H2.77738H2.78111H2.78485H2.78858H2.79231H2.79604H2.79978H2.80351H2.80724H2.81098H2.81471H2.81844H2.82218H2.82591H2.82964H2.83338H2.83711H2.84084H2.84458H2.84831H2.85205H2.85578H2.85951H2.86325H2.86698H2.87071H2.87445H2.87818H2.88192H2.88565H2.88938H2.89312H2.89685H2.90059H2.90432H2.90806H2.91179H2.91552H2.91926H2.92299H2.92673H2.93046H2.9342H2.93793H2.94166H2.9454H2.94913H2.95287H2.9566H2.96034H2.96407H2.96781H2.97154H2.97528H2.97901H2.98275H2.98648H2.99022H2.99395H2.99769H3.00142H3.00516H3.00889H3.01263H3.01636H3.0201H3.02383H3.02757H3.0313H3.03504H3.03878H3.04251H3.04625H3.04998H3.05372H3.05745H3.06119H3.06492H3.06866H3.0724H3.07613H3.07987H3.0836H3.08734H3.09107H3.09481H3.09855H3.10228H3.10602H3.10975H3.11349H3.11722H3.12096H3.1247H3.12843H3.13217H3.13591H3.13964H3.14338H3.14711H3.15085H3.15459H3.15832H3.16206H3.16579H3.16953H3.17327H3.177H3.18074H3.18448H3.18821H3.19195H3.19568H3.19942H3.20316H3.20689H3.21063H3.21437H3.2181H3.22184H3.22558H3.22931H3.23305H3.23679H3.24052H3.24426H3.248H3.25173H3.25547H3.25921H3.26294H3.26668H3.27042H3.27415H3.27789H3.28163H3.28536H3.2891H3.29284H3.29657H3.30031H3.30405H3.30778H3.31152H3.31526H3.31899H3.32273H3.32647H3.3302H3.33394H3.33768H3.34142H3.34515H3.34889H3.35263H3.35636H3.3601H3.36384H3.36757H3.37131H3.37505H3.37879H3.38252H3.38626H3.39H3.39373H3.39747H3.40121H3.40494H3.40868H3.41242H3.41616H3.41989H3.42363H3.42737H3.4311H3.43484H3.43858H3.44232H3.44605H3.44979H3.45353H3.45726H3.461H3.46474H3.46847H3.47221H3.47595H3.47969H3.48342H3.48716H3.4909H3.49463H3.49837H3.50211H3.50585H3.50958H3.51332H3.51706H3.52079H3.52453H3.52827H3.53201H3.53574H3.53948H3.54322H3.54695H3.55069H3.55443H3.55816H3.5619H3.56564H3.56938H3.57311H3.57685H3.58059H3.58432H3.58806H3.5918H3.59553H3.59927H3.60301H3.60675H3.61048H3.61422H3.61796H3.62169H3.62543H3.62917H3.6329H3.63664H3.64038H3.64411H3.64785H3.65159H3.65533H3.65906H3.6628H3.66654H3.67027H3.67401H3.67775H3.68148H3.68522H3.68896H3.69269H3.69643H3.70017H3.7039H3.70764H3.71138H3.71511H3.71885H3.72259H3.72632H3.73006H3.7338H3.73753H3.74127H3.74501H3.74874H3.75248H3.75622H3.75995H3.76369H3.76742H3.77116H3.7749H3.77863H3.78237H3.78611H3.78984H3.79358H3.79732H3.80105H3.80479H3.80852H3.81226H3.816H3.81973H3.82347H3.8272H3.83094H3.83468H3.83841H3.84215H3.84589H3.84962H3.85336H3.85709H3.86083H3.86456H3.8683H3.87204H3.87577H3.87951H3.88324H3.88698H3.89072H3.89445H3.89819H3.90192H3.90566H3.90939H3.91313H3.91686H3.9206H3.92434H3.92807H3.93181H3.93554H3.93928H3.94301H3.94675H3.95048H3.95422H3.95795H3.96169H3.96542H3.96916H3.97289H3.97663H3.98036H3.9841H3.98783H3.99157H3.9953H3.99904H4.00277H4.00651H4.01024H4.01398H4.01771H4.02145H4.02518H4.02892H4.03265H4.03638H4.04012H4.04385H4.04759H4.05132H4.05506H4.05879H4.06253H4.06626H4.06999H4.07373H4.07746H4.0812H4.08493H4.08866H4.0924H4.09613H4.09987H4.1036H4.10733H4.11107H4.1148H4.11853H4.12227H4.126H4.12974H4.13347H4.1372H4.14094H4.14467H4.1484H4.15214H4.15587H4.1596H4.16334H4.16707H4.1708H4.17453H4.17827H4.182H4.18573H4.18947H4.1932H4.19693H4.20066H4.2044H4.20813H4.21186H4.2156H4.21933H4.22306H4.22679H4.23053H4.23426H4.23799H4.24172H4.24545H4.24919H4.25292H4.25665H4.26038H4.26411H4.26785H4.27158H4.27531H4.27904H4.28277H4.2865H4.29024H4.29397H4.2977H4.30143H4.30516H4.30889H4.31262H4.31636H4.32009H4.32382H4.32755H4.33128H4.33501H4.33874H4.34247H4.3462H4.34993H4.35366H4.3574H4.36113H4.36486H4.36859H4.37232H4.37605H4.37978H4.38351H4.38724H4.39097H4.3947H4.39843H4.40216H4.40589H4.40962H4.41335H4.41708H4.42081H4.42454H4.42827H4.432H4.43572L4.43945 15.298L4.43987 15.298C4.56368 15.2975 4.6834 15.3423 4.77646 15.424C4.86953 15.5056 4.92951 15.6185 4.94511 15.7413C4.9607 15.8642 4.93082 15.9885 4.86111 16.0908C4.79164 16.1927 4.68738 16.2659 4.56789 16.2965C4.50407 16.3109 4.4387 16.3171 4.37331 16.3151L4.37331 16.3151H4.37021L2.45549 16.315L2.4545 16.3151C2.14791 16.3181 1.84374 16.2606 1.55939 16.1459C1.27505 16.0312 1.01612 15.8616 0.797426 15.6467C0.578736 15.4318 0.404582 15.1759 0.284935 14.8936C0.165338 14.6114 0.102552 14.3084 0.100167 14.002V13.9918V13.9813V13.9707V13.9602V13.9497V13.9391V13.9286V13.9181V13.9075V13.897V13.8865V13.8759V13.8654V13.8549V13.8443V13.8338V13.8233V13.8127V13.8022V13.7917V13.7811V13.7706V13.7601V13.7495V13.739V13.7285V13.7179V13.7074V13.6969V13.6863V13.6758V13.6653V13.6547V13.6442V13.6337V13.6231V13.6126V13.6021V13.5915V13.581V13.5705V13.5599V13.5494V13.5389V13.5283V13.5178V13.5073V13.4967V13.4862V13.4756V13.4651V13.4546V13.444V13.4335V13.423V13.4124V13.4019V13.3914V13.3808V13.3703V13.3598V13.3492V13.3387V13.3282V13.3176V13.3071V13.2966V13.286V13.2755V13.2649V13.2544V13.2439V13.2333V13.2228V13.2123V13.2017V13.1912V13.1807V13.1701V13.1596V13.1491V13.1385V13.128V13.1175V13.1069V13.0964V13.0858V13.0753V13.0648V13.0542V13.0437V13.0332V13.0226V13.0121V13.0016V12.991V12.9805V12.97V12.9594V12.9489V12.9383V12.9278V12.9173V12.9067V12.8962V12.8857V12.8751V12.8646V12.8541V12.8435V12.833V12.8225V12.8119V12.8014V12.7908V12.7803V12.7698V12.7592V12.7487V12.7382V12.7276V12.7171V12.7066V12.696V12.6855V12.675V12.6644V12.6539V12.6433V12.6328V12.6223V12.6117V12.6012V12.5907V12.5801V12.5696V12.5591V12.5485V12.538V12.5275V12.5169V12.5064V12.4959V12.4853V12.4748V12.4642V12.4537V12.4432V12.4326V12.4221V12.4116V12.401V12.3905V12.38V12.3694V12.3589V12.3484V12.3378V12.3273V12.3168V12.3062V12.2957V12.2852V12.2746V12.2641V12.2536V12.243V12.2325V12.222V12.2114V12.2009V12.1903V12.1798V12.1693V12.1587V12.1482V12.1377V12.1271V12.1166V12.1061V12.0955V12.085V12.0745V12.0639V12.0534V12.0429V12.0323V12.0218V12.0113V12.0007V11.9902V11.9797V11.9691V11.9586V11.9481V11.9375V11.927V11.9165V11.9059V11.8954V11.8849V11.8743V11.8638V11.8533V11.8427V11.8322V11.8217V11.8111V11.8006V11.7901V11.7796V11.769V11.7585V11.748V11.7374V11.7269V11.7164V11.7058V11.6953V11.6848V11.6742V11.6637V11.6532V11.6426V11.6321V11.6216V11.611V11.6005V11.59V11.5795V11.5689V11.5584V11.5479V11.5373V11.5268V11.5163V11.5057V11.4952V11.4847V11.4741V11.4636V11.4531V11.4426V11.432V11.4215V11.411V11.4004V11.3899V11.3794V11.3689V11.3583V11.3478V11.3373V11.3267V11.3162V11.3057V11.2952V11.2846V11.2741V11.2636V11.253V11.2425V11.232V11.2215V11.2109V11.2004V11.1899V11.1793V11.1688V11.1583V11.1478V11.1372V11.1267V11.1162V11.1057V11.0951V11.0846V11.0741V11.0635V11.053V11.0425V11.032V11.0214V11.0109V11.0004V10.9899V10.9793V10.9688V10.9583V10.9478V10.9372V10.9267V10.9162V10.9057V10.8951V10.8846V10.8741V10.8636V10.853V10.8425V10.832V10.8215V10.8109V10.8004V10.7899V10.7794V10.7689V10.7583V10.7478V10.7373V10.7268V10.7162V10.7057V10.6952V10.6847V10.6741V10.6636V10.6531V10.6426V10.6321V10.6215V10.611V10.6005V10.59V10.5795V10.5689V10.5584V10.5479V10.5374V10.5269V10.5163V10.5058V10.4953V10.4848V10.4743V10.4637V10.4532V10.4427V10.4322V10.4217V10.4111V10.4006V10.3901V10.3796V10.3691V10.3585V10.348V10.3375V10.327V10.3165V10.306V10.2954V10.2849V10.2744V10.2639V10.2534V10.2429V10.2323V10.2218V10.2113V10.2008V10.1903V10.1798V10.1692V10.1587V10.1482V10.1377V10.1272V10.1167V10.1062V10.0956V10.0851V10.0746V10.0641V10.0536V10.0431V10.0326V10.022V10.0115V10.001V9.99051V9.98V9.96949V9.95897V9.94846V9.93795V9.92744V9.91693V9.90641V9.8959V9.88539V9.87488V9.86437V9.85386V9.84335V9.83284V9.82233V9.81182V9.80131V9.7908V9.78029V9.76978V9.75928V9.74877V9.73826V9.72775V9.71724V9.70673V9.69623V9.68572V9.67521V9.6647V9.6542V9.64369V9.63318V9.62268V9.61217V9.60166V9.59116V9.58065V9.57015V9.55964V9.54914V9.53863V9.52813V9.51762V9.50712V9.49661V9.48611V9.47561V9.4651V9.4546V9.4441V9.43359V9.42309V9.41259V9.40208V9.39158V9.38108V9.37058V9.36008V9.34958V9.33907V9.32857V9.31807V9.30757V9.29707V9.28657V9.27607V9.26557V9.25507V9.24457V9.23407V9.22357V9.21308V9.20258V9.19208V9.18158V9.17108V9.16059V9.15009V9.13959V9.12909V9.1186V9.1081V9.0976V9.08711V9.07661V9.06612V9.05562V9.04513V9.03463V9.02413V9.01364V9.00315V8.99265V8.98216V8.97166V8.96117V8.95068V8.94018V8.92969V8.9192V8.90871V8.89821V8.88772V8.87723V8.86674V8.85625V8.84576V8.83527V8.82477V8.81428V8.80379V8.7933V8.78281V8.77233V8.76184V8.75135V8.74086V8.73037V8.71988V8.70939V8.69891V8.68842V8.67793V8.66744V8.65696V8.64647V8.63598V8.6255V8.61501V8.60456V8.5941V8.58365V8.57319V8.56274V8.55229V8.54183V8.53138V8.52092V8.51047V8.50002V8.48956V8.47911V8.46866V8.4582V8.44775V8.43729V8.42684V8.41639V8.40593V8.39548V8.38503V8.37457V8.36412V8.35367V8.34321V8.33276V8.32231V8.31186V8.3014V8.29095V8.2805V8.27005V8.25959V8.24914V8.23869V8.22824V8.21778V8.20733V8.19688V8.18643V8.17598V8.16552V8.15507V8.14462V8.13417V8.12372V8.11326V8.10281V8.09236V8.08191V8.07146V8.06101V8.05055V8.0401V8.02965V8.0192V8.00875V7.9983V7.98785V7.9774V7.96695V7.95649V7.94604V7.93559V7.92514V7.91469V7.90424V7.89379V7.88334V7.87289V7.86244V7.85199V7.84154V7.83109V7.82064V7.81019V7.79974V7.78929V7.77884V7.76839V7.75794V7.74749V7.73704V7.72659V7.71614V7.70569V7.69524V7.68479V7.67434V7.66389V7.65344V7.64299V7.63254V7.62209V7.61164V7.60119V7.59074V7.5803V7.56985V7.5594V7.54895V7.5385V7.52805V7.5176V7.50715V7.4967V7.48626V7.47581V7.46536V7.45491V7.44446V7.43401V7.42356V7.41312V7.40267V7.39222V7.38177V7.37132V7.36088V7.35043V7.33998V7.32953V7.31908V7.30864V7.29819V7.28774V7.27729V7.26685V7.2564V7.24595V7.2355V7.22505V7.21461V7.20416V7.19371V7.18327V7.17282V7.16237V7.15192V7.14148V7.13103V7.12058V7.11014V7.09969V7.08924V7.07879V7.06835V7.0579V7.04745V7.03701V7.02656V7.01611V7.00567V6.99522V6.98478V6.97433V6.96388V6.95344V6.94299V6.93254V6.9221V6.91165V6.90121V6.89076V6.88031V6.86987V6.85942V6.84897V6.83853V6.82808V6.81764V6.80719V6.79675V6.7863V6.77585V6.76541V6.75496V6.74452V6.73407V6.72363V6.71318V6.70274V6.69229V6.68185V6.6714V6.66095V6.65051V6.64006V6.62962V6.61917V6.60873V6.59828V6.58784V6.57739V6.56695V6.5565V6.54606V6.53562V6.52517V6.51473V6.50428V6.49384V6.48339V6.47295V6.4625V6.45206V6.44161V6.43117V6.42073V6.41028V6.39984V6.38939V6.37895V6.3685V6.35806V6.34762V6.33717V6.32673V6.31628V6.30584V6.2954V6.28495V6.27451V6.26406V6.25362V6.24318V6.23273V6.22229V6.21185V6.2014V6.19096V6.18051V6.17007V6.15963V6.14918V6.13874V6.1283V6.11785V6.10741V6.09697V6.08652V6.07608V6.06564V6.05519V6.04475V6.03431V6.02387V6.01342V6.00298V5.99254V5.98209V5.97165V5.96121V5.95077V5.94032V5.92988V5.91944V5.90899V5.89855V5.88811V5.87767V5.86722V5.85678V5.84634V5.8359V5.82545V5.81501V5.80457V5.79413V5.78368V5.77324V5.7628V5.75236V5.74191V5.73147V5.72103V5.71059V5.70015V5.6897V5.67926V5.66882V5.65838V5.64793V5.63749V5.62705V5.61661V5.60617V5.59573V5.58528V5.57484V5.5644V5.55396V5.54352V5.53307V5.52263V5.51219V5.50175V5.49131V5.48087V5.47042V5.45998V5.44954V5.4391V5.42866V5.41822V5.40778V5.39733V5.38689V5.37645V5.36601V5.35557V5.34513V5.33469V5.32425V5.3138V5.30336V5.29292V5.28248V5.27204V5.2616V5.25116V5.24072V5.23028V5.21983V5.20939V5.19895V5.18851V5.17807V5.16763V5.15719V5.14675V5.13631V5.12587V5.11543V5.10498V5.09454V5.0841V5.07366V5.06322V5.05278V5.04234V5.0319V5.02146V5.01102V5.00058V4.99014V4.9797V4.96926V4.95882V4.94838V4.93794V4.9275V4.91705V4.90661V4.89617V4.88573V4.87529V4.86485V4.85441V4.84397V4.83353V4.82309V4.81265V4.80221V4.79177V4.78133V4.77089V4.76045V4.75001V4.73957V4.72913V4.71869V4.70825V4.69781V4.68737V4.67693V4.66649V4.65605V4.64561V4.63517V4.62473V4.61429V4.60385V4.59341V4.58297V4.57253V4.56209V4.55165V4.54121V4.53077V4.52033V4.50989V4.49945V4.48901V4.47857V4.46813V4.45769V4.44725V4.43681V4.42637V4.41594V4.4055V4.39506V4.38462V4.37418V4.36374V4.3533V4.34286V4.33242V4.32198V4.31154V4.3011V4.29066V4.28022V4.26978V4.25934V4.2489V4.23846V4.22802V4.21758V4.20714V4.19671V4.18627V4.17583V4.16539V4.15495V4.14451V4.13407V4.12363V4.11319V4.10275V4.09231V4.08187V4.07143V4.06099V4.05056V4.04012V4.02968V4.01924V4.0088V3.99836V3.98792V3.97748V3.96704V3.9566V3.94616V3.93572V3.92529V3.91485V3.90441V3.89397V3.88353V3.87309V3.86265V3.85221V3.84177V3.83133V3.82089V3.81045V3.80002V3.78958V3.77914V3.7687V3.75826V3.74782V3.73738V3.72694V3.7165V3.70606V3.69563V3.68519V3.67475V3.66431V3.65387V3.64343V3.63299V3.62255V3.61211V3.60167V3.59124V3.5808V3.57036V3.55992V3.54948V3.53904V3.5286V3.51816V3.50772V3.49729V3.48685V3.47641V3.46597V3.45553V3.44509V3.43465V3.42421V3.41377V3.40333V3.3929V3.38246V3.37202V3.36158V3.35114V3.3407V3.33026V3.31982V3.30938V3.29895V3.28851V3.27807V3.26763Z" fill="black" stroke="white" stroke-width="0.2"/>
<path d="M9.76001 15.6478L9.76001 15.6478L9.75901 15.648C9.26327 15.7914 8.76585 15.929 8.26699 16.067C7.99716 16.1417 7.72691 16.2164 7.45628 16.2923L7.4561 16.2916L7.44552 16.296C7.34729 16.336 7.23935 16.3459 7.13549 16.3243C7.03229 16.3029 6.93776 16.2514 6.8638 16.1763C6.79311 16.0973 6.74628 15.9998 6.72878 15.8952C6.71116 15.7899 6.72398 15.6817 6.76574 15.5835L6.76625 15.5837L6.76934 15.5736C6.84676 15.3201 6.92276 15.0672 6.99862 14.8147C7.14249 14.3358 7.28584 13.8587 7.4374 13.3831L7.43745 13.3829C7.48162 13.2436 7.55644 13.116 7.65639 13.0094C8.74594 11.9128 9.83816 10.8223 10.933 9.73811L10.934 9.73714C11.1589 9.50828 11.443 9.3465 11.7546 9.26989C12.0662 9.19328 12.393 9.20487 12.6984 9.30335C13.0038 9.40184 13.2757 9.58334 13.4839 9.82756C13.692 10.0718 13.8281 10.3691 13.8769 10.6862L13.877 10.6865C13.8901 10.7702 13.8977 10.8547 13.8997 10.9394C13.9073 11.3739 13.7434 11.794 13.4434 12.1085C12.324 13.2332 11.1984 14.3562 10.0666 15.4774C9.97929 15.5576 9.87424 15.616 9.76001 15.6478ZM11.6497 12.4594L11.7203 12.3888L11.6498 12.3181L10.7817 11.4473L10.7107 11.376L10.6398 11.4475C10.4706 11.6182 10.3014 11.7913 10.1314 11.9651C9.71914 12.3867 9.30225 12.813 8.87001 13.2228C8.53515 13.5149 8.30244 13.9065 8.20587 14.3403L8.20585 14.3403L8.20542 14.3424C8.18244 14.4573 8.1492 14.5646 8.1123 14.6838C8.09059 14.7539 8.06761 14.8281 8.0447 14.9104L7.99713 15.0812L8.16793 15.0335C8.28845 14.9999 8.40565 14.9673 8.52049 14.9354C8.79539 14.8591 9.0568 14.7866 9.31797 14.7114C9.38577 14.6935 9.44771 14.6582 9.49759 14.6089L9.49773 14.6087C10.0417 14.0687 10.5828 13.5272 11.1184 12.991C11.2961 12.8131 11.4733 12.6358 11.6497 12.4594ZM11.0476 12.9205C11.2253 12.7425 11.4025 12.5652 11.579 12.3887L9.42728 14.5377C9.97113 13.9979 10.512 13.4566 11.0476 12.9205ZM12.4191 11.5406L12.4764 11.598L12.7561 10.7909L12.8535 10.7684C12.8535 10.7681 12.8534 10.7678 12.8533 10.7675C12.8214 10.6295 12.7472 10.5049 12.6411 10.4111C12.5355 10.3177 12.4035 10.2595 12.2635 10.2443C12.1275 10.2223 11.988 10.2395 11.8614 10.2939C11.7339 10.3486 11.6247 10.4388 11.5468 10.5537L11.5005 10.6221L11.5589 10.6805L12.4191 11.5406Z" fill="black" stroke="white" stroke-width="0.2"/>
<path d="M3.09185 5.59653V5.59627L3.08462 5.59679C2.99237 5.60347 2.90006 5.5848 2.81765 5.5428C2.73525 5.5008 2.6659 5.43707 2.61711 5.3585C2.56832 5.27993 2.54194 5.18951 2.54083 5.09703C2.53972 5.0047 2.56384 4.91383 2.61058 4.8342C2.6624 4.7481 2.73736 4.67828 2.82693 4.63271C2.91663 4.58706 3.01737 4.56757 3.11763 4.57646L3.11759 4.57686H3.12647H9.26743V4.57707L9.27404 4.57664C9.34368 4.57203 9.41352 4.58176 9.47924 4.60524C9.54496 4.62872 9.60516 4.66545 9.65611 4.71314L9.72445 4.64013L9.65611 4.71314C9.70706 4.76083 9.74768 4.81847 9.77545 4.8825C9.80322 4.94652 9.81755 5.01557 9.81755 5.08536C9.81755 5.15515 9.80322 5.2242 9.77545 5.28822C9.74768 5.35225 9.70706 5.40989 9.65611 5.45758C9.60516 5.50527 9.54496 5.542 9.47924 5.56548C9.41352 5.58896 9.34368 5.59869 9.27404 5.59408L9.27405 5.59386L9.26735 5.59386L6.18363 5.59653L6.18355 5.59653L3.09185 5.59653Z" fill="black" stroke="white" stroke-width="0.2"/>
<path d="M3.07594 8.03845V8.03832L3.07089 8.03857C2.97989 8.04317 2.88935 8.02304 2.80888 7.98032C2.7284 7.93761 2.661 7.87389 2.61382 7.79594C2.56664 7.718 2.54145 7.62873 2.54093 7.53762C2.5404 7.44651 2.56456 7.35696 2.61083 7.27848L2.61083 7.27848L2.61107 7.27806C2.66152 7.19156 2.73573 7.12135 2.8249 7.07578C2.91407 7.0302 3.01444 7.01118 3.1141 7.02096L3.11405 7.02144H3.12387H9.30479V7.02157L9.30993 7.02131C9.40233 7.01654 9.49418 7.03811 9.57479 7.08351C9.65541 7.1289 9.72147 7.19625 9.76531 7.27773L9.76511 7.27784L9.7687 7.28356C9.81684 7.36016 9.84238 7.44879 9.84238 7.53926C9.84238 7.62973 9.81684 7.71837 9.7687 7.79496L9.76828 7.79565C9.71866 7.87603 9.6479 7.94121 9.56373 7.98409C9.47956 8.02696 9.38522 8.04586 9.29103 8.03873L9.29105 8.03845H9.28348H6.16506H6.15902H6.15298H6.14695H6.14091H6.13487H6.12883H6.12279H6.11675H6.11071H6.10468H6.09864H6.0926H6.08656H6.08052H6.07448H6.06844H6.06241H6.05637H6.05033H6.04429H6.03825H6.03221H6.02617H6.02013H6.0141H6.00806H6.00202H5.99598H5.98994H5.9839H5.97786H5.97183H5.96579H5.95975H5.95371H5.94767H5.94163H5.93559H5.92956H5.92352H5.91748H5.91144H5.9054H5.89936H5.89332H5.88729H5.88125H5.87521H5.86917H5.86313H5.85709H5.85106H5.84502H5.83898H5.83294H5.8269H5.82086H5.81482H5.80879H5.80275H5.79671H5.79067H5.78463H5.77859H5.77256H5.76652H5.76048H5.75444H5.7484H5.74236H5.73633H5.73029H5.72425H5.71821H5.71217H5.70613H5.7001H5.69406H5.68802H5.68198H5.67594H5.6699H5.66387H5.65783H5.65179H5.64575H5.63971H5.63367H5.62764H5.6216H5.61556H5.60952H5.60348H5.59745H5.59141H5.58537H5.57933H5.57329H5.56726H5.56122H5.55518H5.54914H5.5431H5.53706H5.53103H5.52499H5.51895H5.51291H5.50688H5.50084H5.4948H5.48876H5.48272H5.47669H5.47065H5.46461H5.45857H5.45253H5.4465H5.44046H5.43442H5.42838H5.42235H5.41631H5.41027H5.40423H5.39819H5.39216H5.38612H5.38008H5.37404H5.36801H5.36197H5.35593H5.34989H5.34386H5.33782H5.33178H5.32574H5.31971H5.31367H5.30763H5.30159H5.29556H5.28952H5.28348H5.27744H5.27141H5.26537H5.25933H5.25329H5.24726H5.24122H5.23518H5.22915H5.22311H5.21707H5.21103H5.205H5.19896H5.19292H5.18689H5.18085H5.17481H5.16877H5.16274H5.1567H5.15066H5.14463H5.13859H5.13255H5.12652H5.12048H5.11444H5.1084H5.10237H5.09633H5.09029H5.08426H5.07822H5.07218H5.06615H5.06011H5.05407H5.04804H5.042H5.03596H5.02993H5.02389H5.01785H5.01182H5.00578H4.99975H4.99371H4.98767H4.98164H4.9756H4.96956H4.96353H4.95749H4.95145H4.94542H4.93938H4.93335H4.92731H4.92127H4.91524H4.9092H4.90317H4.89713H4.89109H4.88506H4.87902H4.87299H4.86695H4.86091H4.85488H4.84884H4.84281H4.83677H4.83073H4.8247H4.81866H4.81263H4.80659H4.80056H4.79452H4.78849H4.78245H4.77641H4.77038H4.76434H4.75831H4.75227H4.74624H4.7402H4.73417H4.72813H4.7221H4.71606H4.71003H4.70399H4.69795H4.69192H4.68588H4.67985H4.67381H4.66778H4.66174H4.65571H4.64967H4.64364H4.6376H4.63157H4.62554H4.6195H4.61347H4.60743H4.6014H4.59536H4.58933H4.58329H4.57726H4.57122H4.56519H4.55915H4.55312H4.54709H4.54105H4.53502H4.52898H4.52295H4.51691H4.51088H4.50485H4.49881H4.49278H4.48674H4.48071H4.47468H4.46864H4.46261H4.45657H4.45054H4.44451H4.43847H4.43244H4.4264H4.42037H4.41434H4.4083H4.40227H4.39624H4.3902H4.38417H4.37814H4.3721H4.36607H4.36004H4.354H4.34797H4.34194H4.3359H4.32987H4.32384H4.3178H4.31177H4.30574H4.2997H4.29367H4.28764H4.28161H4.27557H4.26954H4.26351H4.25747H4.25144H4.24541H4.23938H4.23334H4.22731H4.22128H4.21525H4.20921H4.20318H4.19715H4.19112H4.18509H4.17905H4.17302H4.16699H4.16096H4.15492H4.14889H4.14286H4.13683H4.1308H4.12476H4.11873H4.1127H4.10667H4.10064H4.09461H4.08857H4.08254H4.07651H4.07048H4.06445H4.05842H4.05239H4.04635H4.04032H4.03429H4.02826H4.02223H4.0162H4.01017H4.00414H3.9981H3.99207H3.98604H3.98001H3.97398H3.96795H3.96192H3.95589H3.94986H3.94383H3.9378H3.93177H3.92574H3.91971H3.91368H3.90764H3.90161H3.89558H3.88955H3.88352H3.87749H3.87146H3.86543H3.8594H3.85337H3.84734H3.84131H3.83528H3.82925H3.82322H3.8172H3.81117H3.80514H3.79911H3.79308H3.78705H3.78102H3.77499H3.76896H3.76293H3.7569H3.75087H3.74484H3.73881H3.73278H3.72676H3.72073H3.7147H3.70867H3.70264H3.69661H3.69058H3.68455H3.67853H3.6725H3.66647H3.66044H3.65441H3.64838H3.64236H3.63633H3.6303H3.62427H3.61824H3.61221H3.60619H3.60016H3.59413H3.5881H3.58208H3.57605H3.57002H3.56399H3.55796H3.55194H3.54591H3.53988H3.53386H3.52783H3.5218H3.51577H3.50975H3.50372H3.49769H3.49167H3.48564H3.47961H3.47358H3.46756H3.46153H3.4555H3.44948H3.44345H3.43742H3.4314H3.42537H3.41935H3.41332H3.40729H3.40127H3.39524H3.38921H3.38319H3.37716H3.37114H3.36511H3.35908H3.35306H3.34703H3.34101H3.33498H3.32896H3.32293H3.31691H3.31088H3.30485H3.29883H3.2928H3.28678H3.28075H3.27473H3.2687H3.26268H3.25665H3.25063H3.24461H3.23858H3.23256H3.22653H3.22051H3.21448H3.20846H3.20243H3.19641H3.19039H3.18436H3.17834H3.17231H3.16629H3.16026H3.15424H3.14822H3.14219H3.13617H3.13015H3.12412H3.1181H3.11208H3.10605H3.10003H3.09401H3.08798H3.08196H3.07594Z" fill="black" stroke="white" stroke-width="0.2"/>
<path d="M6.79086 9.45789V9.45832L6.80017 9.45745C6.87119 9.45081 6.94281 9.45906 7.01046 9.48168C7.0781 9.50431 7.14028 9.5408 7.19301 9.58883C7.24575 9.63686 7.28787 9.69537 7.3167 9.76061L7.40817 9.7202L7.3167 9.76061C7.34552 9.82585 7.36041 9.8964 7.36041 9.96772C7.36041 10.0391 7.34552 10.1096 7.3167 10.1748C7.28787 10.2401 7.24575 10.2986 7.19301 10.3466C7.14028 10.3946 7.0781 10.4311 7.01046 10.4538C6.94281 10.4764 6.87119 10.4846 6.80017 10.478L6.80021 10.4776H6.79086H3.11853V10.4771L3.10921 10.478C3.0382 10.4846 2.96657 10.4764 2.89893 10.4538C2.83128 10.4311 2.76911 10.3946 2.71637 10.3466C2.66364 10.2986 2.62151 10.2401 2.59269 10.1748C2.56386 10.1096 2.54897 10.0391 2.54897 9.96772C2.54897 9.8964 2.56386 9.82585 2.59269 9.76061C2.62151 9.69537 2.66364 9.63686 2.71637 9.58883C2.76911 9.5408 2.83128 9.50431 2.89893 9.48168C2.96657 9.45906 3.0382 9.45081 3.10921 9.45745L3.10917 9.45789H3.11853H4.94271H6.79086Z" fill="black" stroke="white" stroke-width="0.2"/>
</svg>
