<svg width="48" height="53" viewBox="0 0 48 53" fill="none" xmlns="http://www.w3.org/2000/svg">
<path d="M0.500567 8.33106H0.500602L0.500533 8.32519C0.479639 6.54641 1.07363 4.81498 2.18207 3.42363C3.29051 2.03228 4.8454 1.06637 6.58387 0.68921L6.58557 0.688834C7.14375 0.565694 7.71356 0.502998 8.28515 0.50183H33.5795V0.501942L33.5901 0.501717C34.5964 0.480366 35.597 0.658322 36.5342 1.02534C37.4715 1.39235 38.3269 1.94117 39.0511 2.64018C39.7753 3.33919 40.3541 4.17458 40.7541 5.09823C41.1541 6.02188 41.3673 7.01555 41.3816 8.02199L41.3817 8.02643C41.4478 10.8858 41.4258 13.7388 41.4038 16.6007C41.3927 18.036 41.3816 19.4735 41.3816 20.9152V20.9314L41.3827 20.9475C41.3955 21.1457 41.3687 21.3445 41.3039 21.5323C41.2391 21.72 41.1375 21.893 41.0051 22.0411C40.8728 22.1893 40.7123 22.3095 40.5329 22.395C40.3536 22.4804 40.1591 22.5293 39.9606 22.5388L39.9502 22.5393L39.9397 22.5402C39.7319 22.5589 39.5225 22.5347 39.3244 22.4691C39.1263 22.4035 38.9438 22.2979 38.7882 22.1589C38.6326 22.0199 38.5072 21.8504 38.4198 21.6609C38.3324 21.4714 38.2849 21.266 38.2801 21.0574L38.2799 21.0497L38.2795 21.042C38.2533 20.5543 38.2533 20.0656 38.2795 19.578L38.2802 19.5646V19.5511C38.2802 18.3403 38.2732 17.1326 38.2661 15.9267C38.2521 13.5247 38.2381 11.1296 38.28 8.72958C38.3199 8.04324 38.2138 7.3562 37.9687 6.71378C37.7223 6.06792 37.341 5.48201 36.8503 4.99512C36.3596 4.50822 35.7707 4.13153 35.123 3.89016C34.4801 3.65062 33.7939 3.54982 33.1095 3.59429C27.6969 3.63028 22.2622 3.61826 16.8221 3.60623C14.0974 3.6002 11.3713 3.59417 8.64599 3.59417C7.10301 3.59417 5.81601 4.04925 4.91427 4.94839C4.01237 5.84771 3.55678 7.13053 3.55678 8.66531V44.2859C3.55678 45.8016 4.0189 47.0695 4.91228 47.959C5.8053 48.8482 7.07267 49.3028 8.57371 49.3028H8.58637H8.59902H8.61167H8.62432H8.63697H8.64962H8.66228H8.67493H8.68758H8.70023H8.71289H8.72554H8.73819H8.75085H8.7635H8.77616H8.78881H8.80146H8.81412H8.82677H8.83943H8.85208H8.86474H8.87739H8.89005H8.90271H8.91536H8.92802H8.94068H8.95333H8.96599H8.97865H8.9913H9.00396H9.01662H9.02928H9.04193H9.05459H9.06725H9.07991H9.09257H9.10523H9.11789H9.13054H9.1432H9.15586H9.16852H9.18118H9.19384H9.2065H9.21916H9.23182H9.24448H9.25715H9.26981H9.28247H9.29513H9.30779H9.32045H9.33311H9.34578H9.35844H9.3711H9.38376H9.39643H9.40909H9.42175H9.43441H9.44708H9.45974H9.4724H9.48507H9.49773H9.5104H9.52306H9.53572H9.54839H9.56105H9.57372H9.58638H9.59905H9.61171H9.62438H9.63704H9.64971H9.66238H9.67504H9.68771H9.70037H9.71304H9.72571H9.73837H9.75104H9.76371H9.77637H9.78904H9.80171H9.81437H9.82704H9.83971H9.85238H9.86504H9.87771H9.89038H9.90305H9.91572H9.92838H9.94105H9.95372H9.96639H9.97906H9.99173H10.0044H10.0171H10.0297H10.0424H10.0551H10.0677H10.0804H10.0931H10.1058H10.1184H10.1311H10.1438H10.1564H10.1691H10.1818H10.1944H10.2071H10.2198H10.2325H10.2451H10.2578H10.2705H10.2831H10.2958H10.3085H10.3212H10.3338H10.3465H10.3592H10.3718H10.3845H10.3972H10.4099H10.4225H10.4352H10.4479H10.4606H10.4732H10.4859H10.4986H10.5112H10.5239H10.5366H10.5493H10.5619H10.5746H10.5873H10.6H10.6126H10.6253H10.638H10.6507H10.6633H10.676H10.6887H10.7014H10.714H10.7267H10.7394H10.7521H10.7647H10.7774H10.7901H10.8028H10.8154H10.8281H10.8408H10.8534H10.8661H10.8788H10.8915H10.9042H10.9168H10.9295H10.9422H10.9549H10.9675H10.9802H10.9929H11.0056H11.0182H11.0309H11.0436H11.0563H11.0689H11.0816H11.0943H11.107H11.1196H11.1323H11.145H11.1577H11.1703H11.183H11.1957H11.2084H11.2211H11.2337H11.2464H11.2591H11.2718H11.2844H11.2971H11.3098H11.3225H11.3351H11.3478H11.3605H11.3732H11.3858H11.3985H11.4112H11.4239H11.4366H11.4492H11.4619H11.4746H11.4873H11.4999H11.5126H11.5253H11.538H11.5507H11.5633H11.576H11.5887H11.6014H11.614H11.6267H11.6394H11.6521H11.6647H11.6774H11.6901H11.7028H11.7155H11.7281H11.7408H11.7535H11.7662H11.7788H11.7915H11.8042H11.8169H11.8296H11.8422H11.8549H11.8676H11.8803H11.8929H11.9056H11.9183H11.931H11.9436H11.9563H11.969H11.9817H11.9944H12.007H12.0197H12.0324H12.0451H12.0577H12.0704H12.0831H12.0958H12.1085H12.1211H12.1338H12.1465H12.1592H12.1718H12.1845H12.1972H12.2099H12.2225H12.2352H12.2479H12.2606H12.2733H12.2859H12.2986H12.3113H12.324H12.3366H12.3493H12.362H12.3747H12.3873H12.4H12.4127H12.4254H12.4381H12.4507H12.4634H12.4761H12.4888H12.5014H12.5141H12.5268H12.5395H12.5521H12.5648H12.5775H12.5902H12.6028H12.6155H12.6282H12.6409H12.6535H12.6662H12.6789H12.6916H12.7042H12.7169H12.7296H12.7423H12.7549H12.7676H12.7803H12.793H12.8056H12.8183H12.831H12.8437H12.8563H12.869H12.8817H12.8944H12.907H12.9197H12.9324H12.9451H12.9577H12.9704H12.9831H12.9958H13.0084H13.0211H13.0338H13.0465H13.0591H13.0718H13.0845H13.0972H13.1098H13.1225H13.1352H13.1478H13.1605H13.1732H13.1859H13.1985H13.2112H13.2239H13.2366H13.2492H13.2619H13.2746H13.2872H13.2999H13.3126H13.3253H13.3379H13.3506H13.3633H13.3759H13.3886H13.4013H13.414H13.4266H13.4393H13.452H13.4646H13.4773H13.49H13.5027H13.5153H13.528H13.5407H13.5533H13.566H13.5787H13.5913H13.604H13.6167H13.6294H13.642H13.6547H13.6674H13.68H13.6927H13.7054H13.718H13.7307H13.7434H13.756H13.7687H13.7814H13.794H13.8067H13.8194H13.832H13.8447H13.8574H13.87H13.8827H13.8954H13.908H13.9207H13.9334H13.946H13.9587H13.9714H13.984H13.9967H14.0094H14.022H14.0347H14.0474H14.06H14.0727H14.0854H14.098H14.1107H14.1234H14.136H14.1487H14.1613H14.174H14.1867H14.1993H14.212H14.2247H14.2373H14.25H14.2626H14.2753H14.288H14.3006H14.3133H14.326H14.3386H14.3513H14.3639H14.3766H14.3893H14.4019H14.4146H14.4272H14.4399H14.4526H14.4652H14.4779H14.4905H14.5032H14.5159H14.5285H14.5412H14.5538H14.5665H14.5792H14.5918H14.6045H14.6171H14.6298H14.6424H14.6551H14.6678H14.6804H14.6931H14.7057H14.7184H14.731H14.7437H14.7564H14.769H14.7817H14.7943H14.807H14.8196H14.8323H14.8449H14.8576H14.8702H14.8829H14.8956H14.9082H14.9209H14.9335H14.9462H14.9588H14.9715H14.9841H14.9968H15.0094H15.0221H15.0347H15.0474L15.06 49.3028L15.0621 49.3028C15.4429 49.3012 15.811 49.439 16.0973 49.6901C16.3835 49.9412 16.5679 50.2884 16.6159 50.6661C16.6638 51.0438 16.572 51.426 16.3576 51.7407C16.1444 52.0537 15.8246 52.2783 15.458 52.3728C15.2555 52.4182 15.0481 52.438 14.8406 52.4315L14.8329 52.4313H14.8252L8.3298 52.4313L8.32486 52.4313C7.30596 52.4414 6.29507 52.2504 5.35009 51.8692C4.40511 51.4881 3.54459 50.9243 2.8178 50.2101C2.09102 49.4959 1.51224 48.6454 1.11461 47.7073C0.717228 46.7697 0.508571 45.763 0.500567 44.7447V44.6751V44.6037V44.5322V44.4608V44.3178V44.2821V44.2464V44.2106V44.1749V44.1034V44.032V43.9605V43.889V43.6032V43.5317V43.4602V43.3887V43.3173V43.1743V43.0314V42.8884V42.7455V42.674V42.6025V42.5668V42.531V42.4596V42.3881V42.3166V42.2809V42.2451V42.1737V42.0307V41.8877V41.6018V41.3159V41.1729V41.1015V41.03V40.7441V40.6011V40.4581V40.1722V40.1365V40.1007V40.0293V39.9578V39.922V39.8863V39.7433V39.6004V39.3145V39.2788V39.243V39.2073V39.1715V39.1358V39.1001V39.0643V39.0286V38.9929V38.9571V38.9214V38.8856V38.8499V38.8142V38.7784V38.7427V38.707V38.6712V38.6355V38.5998V38.564V38.5283V38.4925V38.4568V38.4211V38.3853V38.3496V38.3139V38.2781V38.2424V38.2067V38.1709V38.1352V38.0995V38.0637V38.028V37.9923V37.9565V37.9208V37.8851V37.5992V37.5635V37.5278V37.492V37.4563V37.4206V37.3848V37.3491V37.3134V37.2777V37.2419V37.2062V37.1705V37.1347V37.099V37.0633V37.0276V36.7418V36.456V36.3845V36.3131V36.2416V36.1702V35.8844V35.813V35.7415V35.6701V35.5987V35.563V35.5272V35.4915V35.4558V35.4201V35.3844V35.3487V35.313V35.0273V34.7416V34.6702V34.6345V34.5987V34.5273V34.4559V34.4202V34.3845V34.3131V34.2774V34.2417V34.1703V34.1346V34.0989V34.0275V33.9918V33.9561V33.8847V33.5991V33.5634V33.5277V33.4563V33.4206V33.3849V33.3136V32.7425V32.5998V32.5641V32.5284V32.4571V32.3143V32.2787V32.243V32.1716V31.6009V31.0302V30.9589V30.8876V30.8163V30.745V30.6736V30.6023V30.531V30.4597V29.8894V29.6043V29.533V29.4618V29.3905V29.3192V29.248V29.1767V29.0342V28.963V28.8917V28.7492V28.4643V28.1794V28.037V28.0014V27.9658V27.9302V27.8946V27.859V27.8234V27.7878V27.7522V27.7166V27.681V27.6454V27.6098V27.325V27.0403V26.7557V26.7201V26.6845V26.6489V26.6134V26.5778V26.5422V26.5067V26.4711V26.4356V26.4002V26.3647V26.3292V26.2938V26.2583V26.2228V26.1874V26.1519V26.1164V26.081V26.0455V26.0101V25.9746V25.9391V25.9037V25.8682V25.8327V25.7973V25.7618V25.7264V25.6909V25.6554V25.62V25.5845V25.5491V25.5136V25.4781V25.4427V25.4072V25.3718V25.3363V25.3008V25.2654V25.2299V25.1945V25.159V25.1236V25.0881V25.0526V25.0172V24.9817V24.9463V24.9108V24.8754V24.8399V24.8044V24.769V24.7335V24.6981V24.6626V24.6272V24.5917V24.5563V24.5208V24.4854V24.4499V24.4144V24.379V24.3435V24.3081V24.2726V24.2372V24.2017V24.1663V24.1308V24.0954V24.0599V24.0245V23.989V23.9536V23.9181V23.8827V23.8472V23.8118V23.7763V23.7409V23.7054V23.67V23.6345V23.5991V23.5636V23.5282V23.4927V23.4573V23.4218V23.3864V23.3509V23.3155V23.28V23.2446V23.2091V23.1737V23.1382V23.1028V23.0673V23.0319V22.9964V22.961V22.9255V22.8901V22.8547V22.8192V22.7838V22.7483V22.7129V22.6774V22.642V22.6065V22.5711V22.5356V22.5002V22.4648V22.4293V22.3939V22.3584V22.323V22.2875V22.2521V22.2167V22.1812V22.1458V22.1103V22.0749V22.0394V22.004V21.9686V21.9331V21.8977V21.8622V21.8268V21.7913V21.7559V21.7205V21.685V21.6496V21.6141V21.5787V21.5433V21.5078V21.4724V21.4369V21.4015V21.3661V21.3306V21.2952V21.2597V21.2243V21.1889V21.1534V21.118V21.0826V21.0471V21.0117V20.9762V20.9408V20.9054V20.8699V20.8345V20.799V20.7636V20.7282V20.6927V20.6573V20.6219V20.5864V20.551V20.5156V20.4801V20.4447V20.4093V20.3738V20.3384V20.3029V20.2675V20.2321V20.1966V20.1612V20.1258V20.0903V20.0549V20.0195V19.984V19.9486V19.9132V19.8777V19.8423V19.8069V19.7714V19.736V19.7006V19.6651V19.6297V19.5943V19.5588V19.5234V19.488V19.4525V19.4171V19.3817V19.3462V19.3108V19.2754V19.2399V19.2045V19.1691V19.1337V19.0982V19.0628V19.0274V18.9919V18.9565V18.9211V18.8856V18.8502V18.8148V18.7794V18.7439V18.7085V18.6731V18.6376V18.6022V18.5668V18.5313V18.4959V18.4605V18.4251V18.3896V18.3542V18.3188V18.2833V18.2479V18.2125V18.1771V18.1416V18.1062V18.0708V18.0354V17.9999V17.9645V17.9291V17.8936V17.8582V17.8228V17.7874V17.7519V17.7165V17.6811V17.6457V17.6102V17.5748V17.5394V17.504V17.4685V17.4331V17.3977V17.3623V17.3268V17.2914V17.256V17.2206V17.1851V17.1497V17.1143V17.0789V17.0434V17.008V16.9726V16.9372V16.9017V16.8663V16.8309V16.7955V16.76V16.7246V16.6892V16.6538V16.6184V16.5829V16.5475V16.5121V16.4767V16.4412V16.4058V16.3704V16.335V16.2995V16.2641V16.2287V16.1933V16.1579V16.1224V16.087V16.0516V16.0162V15.9807V15.9453V15.9099V15.8745V15.8391V15.8036V15.7682V15.7328V15.6974V15.662V15.6265V15.5911V15.5557V15.5203V15.4849V15.4494V15.414V15.3786V15.3432V15.3078V15.2723V15.2369V15.2015V15.1661V15.1307V15.0952V15.0598V15.0244V14.989V14.9536V14.9181V14.8827V14.8473V14.8119V14.7765V14.741V14.7056V14.6702V14.6348V14.5994V14.564V14.5285V14.4931V14.4577V14.4223V14.3869V14.3514V14.316V14.2806V14.2452V14.2098V14.1744V14.1389V14.1035V14.0681V14.0327V13.9973V13.9619V13.9264V13.891V13.8556V13.8202V13.7848V13.7494V13.7139V13.6785V13.6431V13.6077V13.5723V13.5369V13.5014V13.466V13.4306V13.3952V13.3598V13.3244V13.2889V13.2535V13.2181V13.1827V13.1473V13.1119V13.0764V13.041V13.0056V12.9702V12.9348V12.8994V12.8639V12.8285V12.7931V12.7577V12.7223V12.6869V12.6515V12.616V12.5806V12.5452V12.5098V12.4744V12.439V12.4036V12.3681V12.3327V12.2973V12.2619V12.2265V12.1911V12.1557V12.1202V12.0848V12.0494V12.014V11.9786V11.9432V11.9078V11.8723V11.8369V11.8015V11.7661V11.7307V11.6953V11.6599V11.6244V11.589V11.5536V11.5182V11.4828V11.4474V11.412V11.3765V11.3411V11.3057V11.2703V11.2349V11.1995V11.1641V11.1286V11.0932V11.0578V11.0224V10.987V10.9516V10.9162V10.8808V10.8453V10.8099V10.7745V10.7391V10.7037V10.6683V10.6329V10.5975V10.562V10.5266V10.4912V10.4558V10.4204V10.385V10.3496V10.3141V10.2787V10.2433V10.2079V10.1725V10.1371V10.1017V10.0663V10.0308V9.99544V9.96002V9.92461V9.8892V9.85379V9.81837V9.78296V9.74755V9.71214V9.67672V9.64131V9.6059V9.57049V9.53507V9.49966V9.46425V9.42884V9.39342V9.35801V9.3226V9.28719V9.25178V9.21636V9.18095V9.14554V9.11013V9.07471V9.0393V9.00389V8.96848V8.93307V8.89765V8.86224V8.82683V8.79142V8.75601V8.72059V8.68518V8.64977V8.61436V8.57895V8.54353V8.50812V8.47271V8.4373V8.40189V8.36647V8.33106Z" fill="black" stroke="white"/>
<path d="M33.0661 50.1731L33.0661 50.1731L33.0611 50.1745C31.3802 50.6606 29.6945 51.127 28.003 51.5949C27.0874 51.8482 26.17 52.102 25.2508 52.3596L25.2233 52.3673L25.197 52.378C24.8933 52.5018 24.5597 52.5323 24.2386 52.4656C23.9209 52.3996 23.6297 52.2414 23.4015 52.0109C23.1834 51.766 23.0389 51.4643 22.9848 51.1407C22.9301 50.8138 22.9699 50.478 23.0996 50.1729L23.1099 50.1486L23.1176 50.1234C23.3807 49.262 23.6387 48.4031 23.8962 47.5463C24.3839 45.9227 24.8695 44.3065 25.3833 42.6942L25.3835 42.6936C25.5259 42.2447 25.7668 41.8333 26.0887 41.4895C29.784 37.7702 33.4882 34.072 37.2015 30.3948L37.2015 30.3949L37.2063 30.39C37.9484 29.6349 38.8858 29.1011 39.9139 28.8484C40.942 28.5956 42.0201 28.6338 43.0277 28.9588C44.0353 29.2837 44.9326 29.8826 45.6193 30.6883C46.306 31.4941 46.755 32.475 46.9161 33.5214L46.9163 33.5229C46.9598 33.7997 46.985 34.0791 46.9917 34.3592C47.0165 35.7903 46.4767 37.1735 45.4893 38.2095C41.6933 42.0236 37.8762 45.8317 34.0381 49.6337C33.7612 49.8876 33.4281 50.0725 33.0661 50.1731ZM39.6333 39.6257L39.9864 39.2727L39.6339 38.9192L36.6888 35.9651L36.3337 35.6088L35.9796 35.9662C35.404 36.547 34.8291 37.1349 34.2519 37.7252C32.8549 39.1537 31.4449 40.5956 29.9818 41.9827C28.8213 42.9961 28.0149 44.3537 27.6801 45.8576L27.68 45.8576L27.6778 45.8682C27.6013 46.2511 27.4926 46.6016 27.3694 46.9991C27.2954 47.2379 27.2161 47.4936 27.1354 47.7835L26.8975 48.6376L27.7515 48.3992C28.1598 48.2852 28.5571 48.1749 28.9465 48.0668C29.8788 47.8079 30.7662 47.5616 31.6523 47.3066C31.9089 47.2386 32.1432 47.1047 32.3319 46.9181L32.3327 46.9174C34.1783 45.0853 36.014 43.2479 37.8311 41.4291C38.434 40.8256 39.0349 40.2242 39.6333 39.6257ZM42.0158 36.509L42.3027 36.7959L42.6425 36.5743C43.1012 36.2751 43.4551 35.8404 43.655 35.3307C43.8543 34.8224 43.8906 34.2648 43.759 33.735C43.6429 33.2349 43.3739 32.7833 42.9892 32.4431C42.6071 32.1053 42.1298 31.8941 41.6231 31.8384C41.133 31.7601 40.6307 31.8223 40.1744 32.0181C39.7135 32.216 39.3189 32.5418 39.0375 32.957L38.8058 33.299L39.0979 33.5911L42.0158 36.509Z" fill="black" stroke="white"/>
<path d="M10.4888 16.07H10.4708L10.4527 16.0713C10.169 16.0919 9.88512 16.0345 9.6317 15.9053C9.37829 15.7762 9.16502 15.5802 9.01497 15.3385C8.86492 15.0969 8.7838 14.8188 8.78039 14.5344C8.77698 14.2508 8.85099 13.9716 8.99444 13.7269C9.15468 13.461 9.38633 13.2453 9.66307 13.1045C9.9405 12.9633 10.252 12.9031 10.5621 12.9306L10.5841 12.9325H10.6063H31.4384H31.4549L31.4714 12.9314C31.6857 12.9172 31.9006 12.9472 32.1028 13.0195C32.305 13.0917 32.4903 13.2047 32.6471 13.3514C32.8038 13.4982 32.9288 13.6756 33.0143 13.8726C33.0997 14.0696 33.1438 14.282 33.1438 14.4968C33.1438 14.7115 33.0997 14.924 33.0143 15.121C32.9288 15.318 32.8038 15.4953 32.6471 15.6421C32.4903 15.7888 32.305 15.9018 32.1028 15.9741C31.9006 16.0463 31.6857 16.0763 31.4714 16.0621L31.4547 16.061L31.438 16.061L20.9772 16.07L20.9767 16.07L10.4888 16.07Z" fill="black" stroke="white"/>
<path d="M10.1542 24.6386H10.1416L10.1289 24.6392C9.84926 24.6534 9.57097 24.5915 9.32361 24.4602C9.07626 24.3289 8.86908 24.133 8.72407 23.8935C8.57907 23.6539 8.50164 23.3795 8.50003 23.0995C8.49841 22.8194 8.57265 22.5442 8.71488 22.303L8.71489 22.303L8.71609 22.3009C8.87172 22.034 9.10067 21.8174 9.37575 21.6768C9.65084 21.5362 9.96049 21.4775 10.2679 21.5077L10.2923 21.5101H10.3168H31.2844H31.2973L31.3102 21.5095C31.5932 21.4949 31.8745 21.5609 32.1215 21.7C32.3684 21.839 32.5708 22.0454 32.7051 22.2949L32.7131 22.3098L32.7221 22.3241C32.8693 22.5583 32.9473 22.8293 32.9473 23.106C32.9473 23.3826 32.8693 23.6536 32.722 23.8878L32.7199 23.8913C32.5671 24.1388 32.3491 24.3396 32.0899 24.4717C31.8306 24.6038 31.54 24.662 31.2499 24.64L31.231 24.6386H31.2121H20.6335H20.613H20.5925H20.572H20.5515H20.5311H20.5106H20.4901H20.4696H20.4491H20.4286H20.4081H20.3877H20.3672H20.3467H20.3262H20.3057H20.2852H20.2647H20.2443H20.2238H20.2033H20.1828H20.1623H20.1418H20.1214H20.1009H20.0804H20.0599H20.0394H20.0189H19.9984H19.978H19.9575H19.937H19.9165H19.896H19.8755H19.8551H19.8346H19.8141H19.7936H19.7731H19.7526H19.7321H19.7117H19.6912H19.6707H19.6502H19.6297H19.6092H19.5888H19.5683H19.5478H19.5273H19.5068H19.4863H19.4658H19.4454H19.4249H19.4044H19.3839H19.3634H19.3429H19.3225H19.302H19.2815H19.261H19.2405H19.22H19.1996H19.1791H19.1586H19.1381H19.1176H19.0971H19.0766H19.0562H19.0357H19.0152H18.9947H18.9742H18.9537H18.9333H18.9128H18.8923H18.8718H18.8513H18.8308H18.8104H18.7899H18.7694H18.7489H18.7284H18.7079H18.6875H18.667H18.6465H18.626H18.6055H18.585H18.5646H18.5441H18.5236H18.5031H18.4826H18.4621H18.4417H18.4212H18.4007H18.3802H18.3597H18.3393H18.3188H18.2983H18.2778H18.2573H18.2368H18.2164H18.1959H18.1754H18.1549H18.1344H18.1139H18.0935H18.073H18.0525H18.032H18.0115H17.9911H17.9706H17.9501H17.9296H17.9091H17.8886H17.8682H17.8477H17.8272H17.8067H17.7862H17.7658H17.7453H17.7248H17.7043H17.6838H17.6634H17.6429H17.6224H17.6019H17.5814H17.561H17.5405H17.52H17.4995H17.479H17.4586H17.4381H17.4176H17.3971H17.3766H17.3562H17.3357H17.3152H17.2947H17.2742H17.2538H17.2333H17.2128H17.1923H17.1718H17.1514H17.1309H17.1104H17.0899H17.0694H17.049H17.0285H17.008H16.9875H16.967H16.9466H16.9261H16.9056H16.8851H16.8647H16.8442H16.8237H16.8032H16.7827H16.7623H16.7418H16.7213H16.7008H16.6804H16.6599H16.6394H16.6189H16.5984H16.578H16.5575H16.537H16.5165H16.4961H16.4756H16.4551H16.4346H16.4142H16.3937H16.3732H16.3527H16.3322H16.3118H16.2913H16.2708H16.2503H16.2299H16.2094H16.1889H16.1684H16.148H16.1275H16.107H16.0865H16.0661H16.0456H16.0251H16.0046H15.9842H15.9637H15.9432H15.9227H15.9023H15.8818H15.8613H15.8408H15.8204H15.7999H15.7794H15.759H15.7385H15.718H15.6975H15.6771H15.6566H15.6361H15.6156H15.5952H15.5747H15.5542H15.5337H15.5133H15.4928H15.4723H15.4519H15.4314H15.4109H15.3904H15.37H15.3495H15.329H15.3086H15.2881H15.2676H15.2471H15.2267H15.2062H15.1857H15.1653H15.1448H15.1243H15.1038H15.0834H15.0629H15.0424H15.022H15.0015H14.981H14.9606H14.9401H14.9196H14.8992H14.8787H14.8582H14.8377H14.8173H14.7968H14.7763H14.7559H14.7354H14.7149H14.6945H14.674H14.6535H14.6331H14.6126H14.5921H14.5717H14.5512H14.5307H14.5103H14.4898H14.4693H14.4489H14.4284H14.4079H14.3875H14.367H14.3465H14.3261H14.3056H14.2851H14.2647H14.2442H14.2237H14.2033H14.1828H14.1623H14.1419H14.1214H14.1009H14.0805H14.06H14.0396H14.0191H13.9986H13.9782H13.9577H13.9372H13.9168H13.8963H13.8758H13.8554H13.8349H13.8145H13.794H13.7735H13.7531H13.7326H13.7121H13.6917H13.6712H13.6508H13.6303H13.6098H13.5894H13.5689H13.5485H13.528H13.5075H13.4871H13.4666H13.4461H13.4257H13.4052H13.3848H13.3643H13.3438H13.3234H13.3029H13.2825H13.262H13.2416H13.2211H13.2006H13.1802H13.1597H13.1393H13.1188H13.0983H13.0779H13.0574H13.037H13.0165H12.9961H12.9756H12.9551H12.9347H12.9142H12.8938H12.8733H12.8529H12.8324H12.812H12.7915H12.771H12.7506H12.7301H12.7097H12.6892H12.6688H12.6483H12.6279H12.6074H12.587H12.5665H12.546H12.5256H12.5051H12.4847H12.4642H12.4438H12.4233H12.4029H12.3824H12.362H12.3415H12.3211H12.3006H12.2802H12.2597H12.2393H12.2188H12.1984H12.1779H12.1575H12.137H12.1166H12.0961H12.0757H12.0552H12.0348H12.0143H11.9939H11.9734H11.953H11.9325H11.9121H11.8916H11.8712H11.8507H11.8303H11.8098H11.7894H11.7689H11.7485H11.728H11.7076H11.6871H11.6667H11.6463H11.6258H11.6054H11.5849H11.5645H11.544H11.5236H11.5031H11.4827H11.4622H11.4418H11.4214H11.4009H11.3805H11.36H11.3396H11.3191H11.2987H11.2782H11.2578H11.2374H11.2169H11.1965H11.176H11.1556H11.1352H11.1147H11.0943H11.0738H11.0534H11.0329H11.0125H10.9921H10.9716H10.9512H10.9307H10.9103H10.8899H10.8694H10.849H10.8286H10.8081H10.7877H10.7672H10.7468H10.7264H10.7059H10.6855H10.665H10.6446H10.6242H10.6037H10.5833H10.5629H10.5424H10.522H10.5016H10.4811H10.4607H10.4403H10.4198H10.3994H10.3789H10.3585H10.3381H10.3176H10.2972H10.2768H10.2563H10.2359H10.2155H10.195H10.1746H10.1542Z" fill="black" stroke="white"/>
<path d="M23.037 29.4915H23.0604L23.0836 29.4893C23.3022 29.4688 23.5227 29.4942 23.731 29.5639C23.9392 29.6335 24.1307 29.7459 24.293 29.8937C24.4554 30.0416 24.585 30.2217 24.6738 30.4226C24.7625 30.6234 24.8084 30.8406 24.8084 31.0602C24.8084 31.2798 24.7625 31.497 24.6738 31.6978C24.585 31.8987 24.4554 32.0788 24.293 32.2267C24.1307 32.3745 23.9392 32.4869 23.731 32.5565C23.5227 32.6262 23.3022 32.6516 23.0836 32.6311L23.0604 32.629H23.037H10.5793H10.556L10.5327 32.6311C10.3141 32.6516 10.0936 32.6262 9.88536 32.5565C9.6771 32.4869 9.48568 32.3745 9.32334 32.2267C9.161 32.0788 9.0313 31.8987 8.94256 31.6978C8.85382 31.497 8.80798 31.2798 8.80798 31.0602C8.80798 30.8406 8.85382 30.6234 8.94256 30.4226C9.0313 30.2217 9.16099 30.0416 9.32334 29.8937C9.48569 29.7459 9.67711 29.6335 9.88536 29.5639C10.0936 29.4942 10.3141 29.4688 10.5327 29.4893L10.556 29.4915H10.5793H16.7675H23.037Z" fill="black" stroke="white"/>
</svg>
