<svg width="22" height="24" viewBox="0 0 22 24" fill="none" xmlns="http://www.w3.org/2000/svg">
<path d="M14.7606 20.6379C15.6889 20.6379 16.4415 19.8854 16.4415 18.957C16.4415 18.0287 15.6889 17.2761 14.7606 17.2761C13.8323 17.2761 13.0797 18.0287 13.0797 18.957C13.0797 19.8854 13.8323 20.6379 14.7606 20.6379Z" fill="black"/>
<path d="M14.7606 22.319C14.0957 22.319 13.4457 22.1219 12.8929 21.7525C12.34 21.3831 11.9092 20.858 11.6547 20.2438C11.4003 19.6295 11.3337 18.9535 11.4634 18.3014C11.5931 17.6493 11.9133 17.0503 12.3835 16.5801C12.8536 16.11 13.4526 15.7898 14.1047 15.6601C14.7569 15.5303 15.4328 15.5969 16.0471 15.8514C16.6614 16.1058 17.1864 16.5367 17.5558 17.0895C17.9252 17.6424 18.1224 18.2924 18.1224 18.9573C18.1215 19.8486 17.767 20.7031 17.1368 21.3334C16.5065 21.9637 15.6519 22.3182 14.7606 22.319ZM14.7606 17.2764C14.4281 17.2764 14.1032 17.3749 13.8267 17.5596C13.5503 17.7443 13.3349 18.0069 13.2077 18.314C13.0804 18.6211 13.0471 18.9591 13.112 19.2852C13.1769 19.6112 13.3369 19.9107 13.572 20.1458C13.8071 20.3809 14.1066 20.541 14.4327 20.6058C14.7587 20.6707 15.0967 20.6374 15.4038 20.5102C15.711 20.383 15.9735 20.1675 16.1582 19.8911C16.3429 19.6147 16.4415 19.2897 16.4415 18.9573C16.4408 18.5117 16.2635 18.0845 15.9484 17.7694C15.6333 17.4543 15.2062 17.277 14.7606 17.2764Z" fill="white"/>
<path d="M21.2969 18.5194C20.7776 17.1964 19.8815 16.0549 18.7196 15.2364C17.5578 14.4178 16.1812 13.9582 14.7607 13.9146C13.3401 13.9582 11.9636 14.4178 10.8018 15.2364C9.63993 16.0549 8.74382 17.1964 8.22453 18.5194L8.03711 18.9572L8.22453 19.3951C8.74382 20.7181 9.63993 21.8596 10.8018 22.6781C11.9636 23.4966 13.3401 23.9562 14.7607 23.9999C16.1812 23.9562 17.5578 23.4966 18.7196 22.6781C19.8815 21.8596 20.7776 20.7181 21.2969 19.3951L21.4843 18.9572L21.2969 18.5194ZM14.7607 22.319C14.0958 22.319 13.4458 22.1219 12.893 21.7525C12.3401 21.3831 11.9092 20.858 11.6548 20.2437C11.4004 19.6295 11.3338 18.9535 11.4635 18.3014C11.5932 17.6493 11.9134 17.0502 12.3835 16.5801C12.8537 16.1099 13.4527 15.7898 14.1048 15.66C14.757 15.5303 15.4329 15.5969 16.0472 15.8513C16.6615 16.1058 17.1865 16.5367 17.5559 17.0895C17.9253 17.6424 18.1225 18.2923 18.1225 18.9572C18.1214 19.8485 17.7668 20.7029 17.1366 21.3332C16.5064 21.9634 15.652 22.3179 14.7607 22.319Z" fill="black"/>
<path d="M6.35616 22.3189H2.15392V4.66952H4.67526V7.19087H14.7606V4.66952H17.282V12.2336H18.9629V4.66952C18.9629 4.22372 18.7858 3.79618 18.4706 3.48095C18.1553 3.16572 17.7278 2.98863 17.282 2.98863H14.7606V2.14818C14.7606 1.70238 14.5835 1.27484 14.2683 0.959608C13.9531 0.644379 13.5255 0.467285 13.0797 0.467285H6.35616C5.91036 0.467285 5.48281 0.644379 5.16758 0.959608C4.85236 1.27484 4.67526 1.70238 4.67526 2.14818V2.98863H2.15392C1.70812 2.98863 1.28057 3.16572 0.965345 3.48095C0.650116 3.79618 0.473022 4.22372 0.473022 4.66952V22.3189C0.473022 22.7647 0.650116 23.1923 0.965345 23.5075C1.28057 23.8227 1.70812 23.9998 2.15392 23.9998H6.35616V22.3189ZM6.35616 2.14818H13.0797V5.50997H6.35616V2.14818Z" fill="black"/>
</svg>
